# xmcd
#
# Track frame offsets: 
#        150
#        26269
#        56638
#        75618
#        93503
#        110294
#        135526
#        154018
#        166690
#        185275
#        202455
#        220186
#        241241
#        269590
#        287858
#
# Disc length: 4038 seconds
#
# Revision: 0
# Processed by: cddbd v1.5PL3 Copyright (c) Steve Scherf et al.
# Submitted via: ExactAudioCopy v0.95a5
#
DISCID=d00fc40f
DTITLE=Various Artist - Got Blues! Todays Blues Superstars
DYEAR=2003
DGENRE=Blues
TTITLE0=John Hammond  - The Same Thing
TTITLE1=Robben Ford - The Way You Treated Me (You're Gonna Be Sorry)
TTITLE2=Shemekia Copland - Walk On
TTITLE3=John Mayall and the  Bluesbreakers - Kids Got the Blues
TTITLE4=Bernard Allison - Fistful of Dirt
TTITLE5=Matt Tutor, Eric Gales, Derek Trucks  - Custard Pie (Revisited
TTITLE5=)
TTITLE6=George Thorogood - Ride Till I Die
TTITLE7=Joe Bonamassa - So It's Like That
TTITLE8=Scott Holt - I Don't Know
TTITLE9=Coco Montoya - Can't Look Back
TTITLE10=Peter Green Splinter Group - Cool Down
TTITLE11=Jimmy Thackery, Tab Benoit - Strange Things Happen
TTITLE12=Gary Moore, Jack Bruce - I'm in the Mood
TTITLE13=Paul Rodgers - I Just Want to Make Love to You
TTITLE14=Fleetwood Mac - Got to Move
EXTD=
EXTT0=
EXTT1=
EXTT2=
EXTT3=
EXTT4=
EXTT5=
EXTT6=
EXTT7=
EXTT8=
EXTT9=
EXTT10=
EXTT11=
EXTT12=
EXTT13=
EXTT14=
PLAYORDER=
